Coordinates
version=1
nRows=8
nColumns=40
inDegrees=yes

Units are S.I. units (second, meters, Newtons, ...)
If the header above contains a line with 'inDegrees', this indicates whether rotational values are in degrees (yes) or radians (no).

endheader
time	pelvis_tilt	pelvis_list	pelvis_rotation	pelvis_tx	pelvis_ty	pelvis_tz	hip_flexion_r	hip_adduction_r	hip_rotation_r	knee_angle_r	knee_angle_r_beta	ankle_angle_r	subtalar_angle_r	mtp_angle_r	hip_flexion_l	hip_adduction_l	hip_rotation_l	knee_angle_l	knee_angle_l_beta	ankle_angle_l	subtalar_angle_l	mtp_angle_l	lumbar_extension	lumbar_bending	lumbar_rotation	arm_flex_r	arm_add_r	arm_rot_r	elbow_flex_r	pro_sup_r	wrist_flex_r	wrist_dev_r	arm_flex_l	arm_add_l	arm_rot_l	elbow_flex_l	pro_sup_l	wrist_flex_l	wrist_dev_l
      2.14000000	      1.24471181	      8.37017233	    -88.46531446	      0.19374892	      0.99728152	      2.16619079	     29.30254085	     -2.99187462	     -4.80117297	     57.50115057	      1.00358440	     -2.17369049	      0.00000000	      0.00000000	     11.12413360	      4.71328998	      2.80446188	      7.66778967	      0.13382818	      3.10225166	      0.00000000	      0.00000000	     -0.55060013	     -2.60862473	     -4.32385150	      0.00000000	      0.00000000	      0.00000000	      0.00000000	      0.00000000	      0.00000000	      0.00000000	      0.00000000	      0.00000000	      0.00000000	      0.00000000	      0.00000000	      0.00000000	      0.00000000
      2.15000000	      0.98380528	      8.12197224	    -88.09303802	      0.19418473	      0.99805911	      2.17973913	     29.87591255	     -3.00625187	     -5.37405243	     55.38918177	      0.96672359	     -1.43119169	     -0.00000000	     -0.00000000	      9.64679210	      4.47516916	      3.32947966	      7.04163497	      0.12289971	      3.56040273	      0.00000000	     -0.00000000	     -0.78082956	     -2.25628348	     -4.73616466	     -0.00000000	     -0.00000000	      0.00000000	      0.00000000	      0.00000000	     -0.00000000	     -0.00000000	     -0.00000000	     -0.00000000	      0.00000000	      0.00000000	      0.00000000	     -0.00000000	      0.00000000
      2.16000000	      0.79752004	      8.17287855	    -87.74362761	      0.19452923	      0.99805389	      2.19306826	     30.72293397	     -3.07444724	     -5.86385904	     53.09576544	      0.92669593	     -0.73013492	      0.00000000	      0.00000000	      8.56039079	      4.30058547	      3.79949837	      6.52631600	      0.11390570	      4.08885977	      0.00000000	      0.00000000	     -0.67825092	     -2.01723352	     -5.06834534	      0.00000000	      0.00000000	      0.00000000	      0.00000000	      0.00000000	      0.00000000	      0.00000000	      0.00000000	      0.00000000	      0.00000000	      0.00000000	      0.00000000	      0.00000000	      0.00000000
      2.17000000	      0.61429334	      8.07689290	    -87.29856480	      0.19497352	      0.99796286	      2.20652647	     31.24500253	     -3.18457222	     -6.46352615	     50.48382649	      0.88110899	     -0.15462418	      0.00000000	      0.00000000	      7.29022161	      4.12470535	      4.42555592	      5.96280513	      0.10407058	      4.62205449	      0.00000000	      0.00000000	     -0.76432712	     -1.76598061	     -5.52640831	      0.00000000	      0.00000000	      0.00000000	      0.00000000	      0.00000000	      0.00000000	      0.00000000	      0.00000000	      0.00000000	      0.00000000	      0.00000000	      0.00000000	      0.00000000	      0.00000000
      2.18000000	      0.50796317	      7.95365559	    -86.83541312	      0.19546499	      0.99758691	      2.22008151	     31.60740540	     -3.39890477	     -7.11049480	     47.61971433	      0.83112080	      0.24297720	      0.00000000	      0.00000000	      5.98281850	      4.01312984	      5.01214770	      5.40253192	      0.09429197	      5.11919150	      0.00000000	      0.00000000	     -0.86234772	     -1.60292440	     -6.02169679	      0.00000000	      0.00000000	      0.00000000	      0.00000000	      0.00000000	      0.00000000	      0.00000000	      0.00000000	      0.00000000	      0.00000000	      0.00000000	      0.00000000	      0.00000000	      0.00000000
      2.19000000	      0.44727624	      7.89568018	    -86.36242819	      0.19589250	      0.99678888	      2.23360585	     31.93504615	     -3.64569373	     -7.76164196	     44.52492995	      0.77710663	      0.51035181	      0.00000000	     -0.00000000	      4.74881674	      3.92820105	      5.62325351	      4.84615062	      0.08458128	      5.63885808	      0.00000000	     -0.00000000	     -0.91574267	     -1.51066152	     -6.51489261	     -0.00000000	     -0.00000000	      0.00000000	      0.00000000	      0.00000000	     -0.00000000	     -0.00000000	      0.00000000	     -0.00000000	     -0.00000000	      0.00000000	      0.00000000	     -0.00000000	      0.00000000
      2.20000000	      0.44632508	      7.80383850	    -85.86619798	      0.19638878	      0.99570934	      2.24722039	     32.10392600	     -3.96858028	     -8.47835665	     41.20785362	      0.71921272	      0.61947981	      0.00000000	      0.00000000	      3.46607700	      3.88600618	      6.23151649	      4.28487031	      0.07478509	      6.13763654	      0.00000000	      0.00000000	     -1.00974254	     -1.46061199	     -7.04267368	      0.00000000	      0.00000000	      0.00000000	      0.00000000	      0.00000000	      0.00000000	      0.00000000	      0.00000000	      0.00000000	      0.00000000	      0.00000000	      0.00000000	      0.00000000	      0.00000000
      2.21000000	      0.47678510	      7.86160135	    -85.38585504	      0.19678018	      0.99413002	      2.26078070	     32.33843835	     -4.27298827	     -9.12686033	     37.68082532	      0.65765447	      0.60635762	      0.00000000	      0.00000000	      2.33398538	      3.86312658	      6.86161691	      3.70496734	      0.06466388	      6.70774890	      0.00000000	      0.00000000	     -0.95266320	     -1.46622197	     -7.56903554	      0.00000000	      0.00000000	      0.00000000	      0.00000000	      0.00000000	      0.00000000	      0.00000000	      0.00000000	      0.00000000	      0.00000000	      0.00000000	      0.00000000	      0.00000000	      0.00000000
